<?xml version="1.0" standalone="no"?>
<!DOCTYPE svg PUBLIC "-//W3C//DTD SVG 20010904//EN"
 "http://www.w3.org/TR/2001/REC-SVG-20010904/DTD/svg10.dtd">
<svg version="1.0" xmlns="http://www.w3.org/2000/svg"
 width="700.000000pt" height="700.000000pt" viewBox="0 0 700.000000 700.000000"
 preserveAspectRatio="xMidYMid meet">
<metadata>
Created by potrace 1.11, written by Peter Selinger 2001-2013
</metadata>
<g transform="translate(0.000000,700.000000) scale(0.100000,-0.100000)"
fill="#000000" stroke="none">
<path d="M3180 6819 c-771 -73 -1497 -416 -2045 -964 -535 -535 -853 -1181
-962 -1955 -25 -177 -25 -662 1 -840 110 -778 448 -1454 992 -1979 774 -749
1830 -1077 2892 -900 908 151 1725 683 2235 1456 290 439 467 921 534 1453 21
169 23 586 5 745 -52 436 -161 799 -354 1178 -236 461 -587 871 -1010 1180
-490 356 -1063 572 -1668 627 -131 11 -494 11 -620 -1z m695 -154 c1257 -147
2323 -1037 2688 -2245 89 -293 126 -532 134 -851 6 -260 -3 -407 -42 -634
-200 -1178 -1066 -2162 -2212 -2514 -157 -48 -367 -94 -533 -117 -178 -25
-644 -25 -820 -1 -768 110 -1426 450 -1945 1007 -771 828 -1043 2018 -710
3113 224 740 737 1398 1404 1802 445 269 928 419 1481 459 102 7 424 -4 555
-19z"/>
<path d="M1840 4035 l0 -1905 320 0 320 0 0 1354 0 1354 73 55 c192 144 418
273 590 335 109 39 253 69 377 78 118 8 376 -10 529 -38 64 -11 128 -23 144
-25 l27 -5 0 330 0 330 -23 6 c-94 23 -305 38 -472 33 -197 -6 -271 -19 -435
-73 -204 -68 -459 -214 -707 -406 l-103 -79 0 281 0 280 -320 0 -320 0 0
-1905z"/>
<path d="M4105 3350 c-33 -6 -105 -21 -159 -35 -387 -99 -625 -369 -626 -708
0 -176 59 -335 165 -443 139 -141 305 -204 785 -299 410 -82 515 -144 542
-323 21 -131 -26 -248 -126 -317 -113 -78 -281 -112 -506 -102 -256 11 -514
98 -758 257 -51 33 -97 60 -103 60 -5 0 -9 -94 -9 -234 l0 -233 73 -33 c92
-42 316 -115 410 -134 145 -30 267 -39 466 -33 161 5 215 10 304 31 205 48
340 120 472 251 143 141 194 255 202 451 9 206 -40 355 -154 466 -152 149
-255 192 -656 273 -149 31 -306 65 -347 76 -171 47 -284 126 -315 220 -20 59
-22 159 -4 218 30 99 156 190 316 228 103 24 323 24 444 0 173 -34 383 -118
535 -213 40 -24 77 -44 83 -44 17 0 15 434 -2 448 -20 17 -154 68 -252 97
-203 59 -318 76 -525 80 -107 2 -222 0 -255 -5z"/>
</g>
</svg>
